<svg xmlns="http://www.w3.org/2000/svg" xmlns:xlink="http://www.w3.org/1999/xlink" version="1.1" width="940" height="788" viewBox="0 0 940 788" xml:space="preserve">
<desc>Created with Fabric.js 3.5.0</desc>
<defs>
</defs>
<rect x="0" y="0" width="100%" height="100%" fill="rgba(0,0,0,0)"/>
<g transform="matrix(10.9158 0 0 10.9158 469.9995 393.9995)" id="358638">
<g style="" vector-effect="non-scaling-stroke">
		<g transform="matrix(1 0 0 1 0.5 0.1)" id="Layer_1">
<path style="stroke: rgb(255,255,255); stroke-width: 1.25; stroke-dasharray: none; stroke-linecap: round; stroke-dashoffset: 0; stroke-linejoin: round; stroke-miterlimit: 10; is-custom-font: none; font-file-url: none; fill: none; fill-rule: nonzero; opacity: 1;" transform=" translate(-15.5, -15.2)" d="M 8.3 26.7 c -0.8 -0.5 -4.7 2.4 -5.3 1.7 c -0.6 -0.6 2 -4.7 1.5 -5.4 C 2.9 20.8 2 18.1 2 15.2 C 2 7.8 8 1.7 15.5 1.7 S 29 7.8 29 15.2 s -6 13.5 -13.5 13.5 c -1 0 -1.9 -0.1 -2.8 -0.3" stroke-linecap="round"/>
</g>
		<g transform="matrix(1 0 0 1 1.2257 -0.5623)" id="Layer_1">
<path style="stroke: rgb(255,255,255); stroke-width: 1.25; stroke-dasharray: none; stroke-linecap: round; stroke-dashoffset: 0; stroke-linejoin: round; stroke-miterlimit: 10; is-custom-font: none; font-file-url: none; fill: none; fill-rule: nonzero; opacity: 1;" transform=" translate(-16.2258, -14.5376)" d="M 12.7 8.4 l 1.2 3 c 0.1 0.2 0 0.4 -0.2 0.5 c -0.5 0.3 -1.2 1 -0.4 2.1 c 1 1.4 3.7 4.9 5.9 2.6 c 0.1 -0.1 0.3 -0.2 0.5 -0.1 l 3.2 1.4 c 0.2 0.1 0.3 0.4 0.2 0.6 c -0.7 1.4 -3.4 5.1 -10.1 -0.7 c -6.8 -5.9 -2.4 -8.8 -0.9 -9.5 C 12.3 8 12.6 8.1 12.7 8.4 z" stroke-linecap="round"/>
</g>
</g>
</g>
<g transform="matrix(1 0 0 1 470 620.4467)" style="" id="877848">
		
<path xml:space="preserve" font-family="Lato" font-size="72" font-style="normal" font-weight="bold" style="stroke: none; stroke-width: 1; stroke-dasharray: none; stroke-linecap: butt; stroke-dashoffset: 0; stroke-linejoin: miter; stroke-miterlimit: 4; is-custom-font: none; font-file-url: none; fill: rgb(255,255,255); fill-rule: nonzero; opacity: 1; white-space: pre;" d="M-183.46-29.44L-163.01 22.62L-170.50 22.62Q-171.76 22.62-172.57 21.99Q-173.38 21.36-173.74 20.42L-173.74 20.42L-177.62 9.80L-199.19 9.80L-203.08 20.42Q-203.36 21.25-204.21 21.93Q-205.06 22.62-206.28 22.62L-206.28 22.62L-213.80 22.62L-193.36-29.44L-183.46-29.44ZM-190.37-14.28L-196.70 2.96L-180.11 2.96L-186.44-14.35Q-186.88-15.51-187.40-17.07Q-187.92-18.64-188.42-20.47L-188.42-20.47Q-188.93-18.64-189.41-17.05Q-189.90-15.47-190.37-14.28L-190.37-14.28ZM-143.50 2.28L-147.64 2.28L-147.64 22.62L-157.32 22.62L-157.32-29.44L-141.44-29.44Q-136.12-29.44-132.32-28.34Q-128.52-27.24-126.09-25.26Q-123.66-23.28-122.53-20.53Q-121.39-17.77-121.39-14.46L-121.39-14.46Q-121.39-11.83-122.17-9.49Q-122.94-7.15-124.40-5.25Q-125.86-3.34-128.00-1.90Q-130.14-0.46-132.88 0.41L-132.88 0.41Q-131.04 1.45-129.71 3.39L-129.71 3.39L-116.68 22.62L-125.39 22.62Q-126.65 22.62-127.53 22.11Q-128.41 21.61-129.02 20.67L-129.02 20.67L-139.97 4.01Q-140.58 3.07-141.32 2.67Q-142.06 2.28-143.50 2.28L-143.50 2.28ZM-147.64-21.95L-147.64-4.67L-141.59-4.67Q-138.85-4.67-136.82-5.35Q-134.78-6.04-133.47-7.24Q-132.16-8.45-131.51-10.11Q-130.86-11.76-130.86-13.74L-130.86-13.74Q-130.86-17.70-133.47-19.83Q-136.08-21.95-141.44-21.95L-141.44-21.95L-147.64-21.95ZM-88.31 15.49L-88.31 15.49Q-85.03 15.49-82.60 14.90Q-80.17 14.30-77.98 13.26L-77.98 13.26L-77.98 3.79L-84.49 3.79Q-85.43 3.79-85.97 3.27Q-86.51 2.75-86.51 1.99L-86.51 1.99L-86.51-3.48L-69.19-3.48L-69.19 17.58Q-71.17 19.02-73.31 20.08Q-75.46 21.14-77.89 21.83Q-80.32 22.51-83.09 22.85Q-85.86 23.19-89.06 23.19L-89.06 23.19Q-94.75 23.19-99.54 21.21Q-104.33 19.23-107.82 15.71Q-111.31 12.18-113.27 7.28Q-115.24 2.39-115.24-3.41L-115.24-3.41Q-115.24-9.28-113.33-14.17Q-111.42-19.07-107.91-22.60Q-104.40-26.13-99.40-28.07Q-94.39-30.01-88.16-30.01L-88.16-30.01Q-81.79-30.01-77.13-28.12Q-72.47-26.23-69.23-23.21L-69.23-23.21L-72.04-18.82Q-72.86-17.49-74.23-17.49L-74.23-17.49Q-75.10-17.49-76.00-18.06L-76.00-18.06Q-77.15-18.75-78.35-19.43Q-79.56-20.11-81.02-20.62Q-82.48-21.12-84.29-21.45Q-86.11-21.77-88.49-21.77L-88.49-21.77Q-92.34-21.77-95.45-20.47Q-98.57-19.18-100.76-16.77Q-102.96-14.35-104.15-10.97Q-105.34-7.59-105.34-3.41L-105.34-3.41Q-105.34 1.09-104.08 4.60Q-102.82 8.11-100.55 10.52Q-98.28 12.93-95.15 14.21Q-92.02 15.49-88.31 15.49ZM-26.60 22.62L-46.26 22.62L-46.26-29.44L-28.30-29.44Q-23.18-29.44-19.57-28.47Q-15.95-27.49-13.63-25.69Q-11.30-23.89-10.22-21.34Q-9.14-18.78-9.14-15.58L-9.14-15.58Q-9.14-13.74-9.68-12.07Q-10.22-10.39-11.36-8.94Q-12.49-7.48-14.24-6.29Q-15.98-5.10-18.40-4.27L-18.40-4.27Q-7.67-1.86-7.67 7.32L-7.67 7.32Q-7.67 10.63-8.93 13.44Q-10.19 16.25-12.60 18.28Q-15.01 20.31-18.54 21.47Q-22.07 22.62-26.60 22.62L-26.60 22.62ZM-26.78-0.21L-36.58-0.21L-36.58 15.06L-26.75 15.06Q-24.05 15.06-22.23 14.41Q-20.41 13.76-19.31 12.68Q-18.22 11.60-17.73 10.16Q-17.24 8.72-17.24 7.10L-17.24 7.10Q-17.24 5.41-17.78 4.06Q-18.32 2.71-19.48 1.76Q-20.63 0.80-22.43 0.30Q-24.23-0.21-26.78-0.21L-26.78-0.21ZM-36.58-21.95L-36.58-6.90L-28.84-6.90Q-23.90-6.90-21.35-8.70Q-18.79-10.50-18.79-14.43L-18.79-14.43Q-18.79-18.49-21.10-20.22Q-23.40-21.95-28.30-21.95L-28.30-21.95L-36.58-21.95ZM50.58-3.41L50.58-3.41Q50.58 2.31 48.67 7.19Q46.76 12.07 43.31 15.63Q39.85 19.20 34.99 21.20Q30.13 23.19 24.23 23.19L24.23 23.19Q18.32 23.19 13.45 21.20Q8.57 19.20 5.09 15.63Q1.62 12.07-0.29 7.19Q-2.20 2.31-2.20-3.41L-2.20-3.41Q-2.20-9.13-0.29-14.01Q1.62-18.89 5.09-22.45Q8.57-26.02 13.45-28.02Q18.32-30.01 24.23-30.01L24.23-30.01Q30.13-30.01 34.99-28.00Q39.85-25.98 43.31-22.44Q46.76-18.89 48.67-14.01Q50.58-9.13 50.58-3.41ZM40.64-3.41L40.64-3.41Q40.64-7.69 39.51-11.10Q38.38-14.50 36.25-16.87Q34.13-19.25 31.09-20.51Q28.04-21.77 24.23-21.77L24.23-21.77Q20.41-21.77 17.35-20.51Q14.29-19.25 12.15-16.87Q10.01-14.50 8.86-11.10Q7.70-7.69 7.70-3.41L7.70-3.41Q7.70 0.87 8.86 4.28Q10.01 7.68 12.15 10.04Q14.29 12.39 17.35 13.65Q20.41 14.91 24.23 14.91L24.23 14.91Q28.04 14.91 31.09 13.65Q34.13 12.39 36.25 10.04Q38.38 7.68 39.51 4.28Q40.64 0.87 40.64-3.41ZM51.01-29.44L92.09-29.44L92.09-21.48L76.43-21.48L76.43 22.62L66.74 22.62L66.74-21.48L51.01-21.48L51.01-29.44ZM123.48 22.62L107.32-29.44L115.45-29.44Q116.71-29.44 117.56-28.84Q118.40-28.25 118.69-27.24L118.69-27.24L127.55 3.90Q127.87 5.05 128.14 6.40Q128.41 7.75 128.66 9.26L128.66 9.26Q128.95 7.75 129.29 6.40Q129.64 5.05 130.03 3.90L130.03 3.90L140.26-27.24Q140.54-28.07 141.39-28.75Q142.24-29.44 143.46-29.44L143.46-29.44L146.30-29.44Q147.56-29.44 148.39-28.84Q149.22-28.25 149.54-27.24L149.54-27.24L159.70 3.90Q160.49 6.20 161.06 9.01L161.06 9.01Q161.32 7.61 161.59 6.31Q161.86 5.01 162.14 3.90L162.14 3.90L171.00-27.24Q171.25-28.14 172.12-28.79Q172.98-29.44 174.20-29.44L174.20-29.44L181.80-29.44L165.64 22.62L156.89 22.62L145.51-12.95Q145.30-13.63 145.06-14.43Q144.83-15.22 144.61-16.12L144.61-16.12Q144.40-15.22 144.16-14.43Q143.93-13.63 143.71-12.95L143.71-12.95L132.23 22.62L123.48 22.62ZM208.55-29.44L229.00 22.62L221.51 22.62Q220.25 22.62 219.44 21.99Q218.63 21.36 218.27 20.42L218.27 20.42L214.38 9.80L192.82 9.80L188.93 20.42Q188.64 21.25 187.79 21.93Q186.95 22.62 185.72 22.62L185.72 22.62L178.20 22.62L198.65-29.44L208.55-29.44ZM201.64-14.28L195.30 2.96L211.90 2.96L205.56-14.35Q205.13-15.51 204.61-17.07Q204.08-18.64 203.58-20.47L203.58-20.47Q203.08-18.64 202.59-17.05Q202.10-15.47 201.64-14.28L201.64-14.28Z"/></g>
</svg>