<svg xmlns="http://www.w3.org/2000/svg" xmlns:xlink="http://www.w3.org/1999/xlink" version="1.1" width="1000" height="1000" viewBox="0 0 1000 1000" xml:space="preserve">
<desc>Created with Fabric.js 3.5.0</desc>
<defs>
</defs>
<rect x="0" y="0" width="100%" height="100%" fill="rgba(255,255,255,0)"/>
<g transform="matrix(1.1323 0 0 1.1323 499.9954 499.9954)" id="892540">
<g style="" vector-effect="non-scaling-stroke">
		<g transform="matrix(1 0 0 1 -0.0005 -42.349)" id="Layer_1">
<path style="stroke: none; stroke-width: 1; stroke-dasharray: none; stroke-linecap: butt; stroke-dashoffset: 0; stroke-linejoin: miter; stroke-miterlimit: 4; is-custom-font: none; font-file-url: none; fill: rgb(255,255,255); fill-rule: nonzero; opacity: 1;" transform=" translate(-255.9995, -213.651)" d="M 486.833 243.032 c -13.833 -13.694 -31.648 -22.153 -50.977 -24.366 c 0.194 -3.356 0.292 -6.721 0.292 -10.074 c 0 -94.106 -76.56 -170.667 -170.667 -170.667 c -76.889 0 -143.44 50.622 -164.19 123.935 C 43.949 168.088 0 216.795 0 275.281 c 0 62.736 51.042 114.096 113.778 114.096 h 66.37 c 5.236 0 9.482 -4.245 9.482 -9.482 s -4.246 -9.482 -9.482 -9.482 h -66.37 c -52.283 0 -94.815 -42.851 -94.815 -95.133 c 0 -50.707 39.639 -92.464 90.241 -94.862 c 4.213 -0.199 7.782 -3.237 8.768 -7.334 c 16.435 -68.366 77.092 -116.155 147.509 -116.155 c 83.648 0 151.704 68.036 151.704 151.684 c 0 5.963 -0.347 11.967 -1.037 17.86 c -0.315 2.69 0.537 5.693 2.333 7.716 c 1.801 2.018 4.38 3.484 7.083 3.484 c 0.009 0 0.014 0 0.018 0 c 18.218 0 35.232 6.598 47.912 19.149 c 12.602 12.477 19.542 29.296 19.542 47.059 c 0 36.599 -29.773 66.532 -66.37 66.532 h -75.852 c -5.236 0 -9.482 4.245 -9.482 9.482 s 4.245 9.482 9.482 9.482 h 75.852 c 47.051 0 85.333 -38.6 85.333 -85.652 C 512 280.861 503.065 259.097 486.833 243.032 z" stroke-linecap="round"/>
</g>
		<g transform="matrix(1 0 0 1 9.4354 109.0399)" id="Layer_1">
<path style="stroke: none; stroke-width: 1; stroke-dasharray: none; stroke-linecap: butt; stroke-dashoffset: 0; stroke-linejoin: miter; stroke-miterlimit: 4; is-custom-font: none; font-file-url: none; fill: rgb(255,255,255); fill-rule: nonzero; opacity: 1;" transform=" translate(-265.4354, -365.0399)" d="M 329.013 315.668 l -56.822 -56.883 c -0.442 -0.444 -0.93 -0.84 -1.454 -1.19 c -0.222 -0.148 -0.463 -0.249 -0.694 -0.376 c -0.309 -0.171 -0.608 -0.358 -0.938 -0.493 c -0.308 -0.128 -0.629 -0.2 -0.947 -0.295 c -0.274 -0.08 -0.537 -0.186 -0.821 -0.243 c -1.226 -0.243 -2.487 -0.243 -3.713 0 c -0.284 0.057 -0.546 0.162 -0.819 0.243 c -0.318 0.094 -0.64 0.167 -0.949 0.295 c -0.328 0.135 -0.626 0.321 -0.935 0.492 c -0.231 0.127 -0.472 0.229 -0.695 0.377 c -0.523 0.35 -1.012 0.745 -1.454 1.19 l -56.883 56.883 c -3.704 3.704 -3.704 9.703 0 13.406 c 3.704 3.704 9.213 3.704 12.917 0 l 40.213 -40.704 v 176.222 c 0 5.236 4.245 9.482 9.482 9.482 s 9.481 -4.245 9.481 -9.482 V 288.37 l 41.194 40.704 c 1.852 1.853 4.523 2.778 6.949 2.778 c 2.426 0 4.975 -0.925 6.826 -2.778 C 332.655 325.371 332.716 319.372 329.013 315.668 z" stroke-linecap="round"/>
</g>
</g>
</g>
</svg>