<svg xmlns="http://www.w3.org/2000/svg" xmlns:xlink="http://www.w3.org/1999/xlink" version="1.1" width="1000" height="1000" viewBox="0 0 1000 1000" xml:space="preserve">
<desc>Created with Fabric.js 3.5.0</desc>
<defs>
</defs>
<rect x="0" y="0" width="100%" height="100%" fill="#ff7310"/>
<g transform="matrix(15.5906 0 0 15.5906 500.0002 500.0002)" id="878485">
<path style="stroke: none; stroke-width: 1; stroke-dasharray: none; stroke-linecap: butt; stroke-dashoffset: 0; stroke-linejoin: miter; stroke-miterlimit: 4; is-custom-font: none; font-file-url: none; fill: rgb(255,255,255); fill-rule: nonzero; opacity: 1;" vector-effect="non-scaling-stroke" transform=" translate(-14.9969, -15.0227)" d="M 6 9.3 L 3.9 5.8 l 1.4 -1.4 l 3.5 2.1 v 1.4 l 3.6 3.6 c 0 0.1 0 0.2 0 0.3 L 11.1 13 L 7.4 9.3 H 6 z M 21 17.8 c -0.3 0 -0.5 0 -0.8 0 c 0 0 0 0 0 0 c -0.7 0 -1.3 -0.1 -1.9 -0.2 l -2.1 2.4 l 4.7 5.3 c 1.1 1.2 3 1.3 4.1 0.1 c 1.2 -1.2 1.1 -3 -0.1 -4.1 L 21 17.8 z M 24.4 14 c 1.6 -1.6 2.1 -4 1.5 -6.1 c -0.1 -0.4 -0.6 -0.5 -0.8 -0.2 l -3.5 3.5 l -2.8 -2.8 l 3.5 -3.5 c 0.3 -0.3 0.2 -0.7 -0.2 -0.8 C 20 3.4 17.6 3.9 16 5.6 c -1.8 1.8 -2.2 4.6 -1.2 6.8 l -10 8.9 c -1.2 1.1 -1.3 3 -0.1 4.1 l 0 0 c 1.2 1.2 3 1.1 4.1 -0.1 l 8.9 -10 C 19.9 16.3 22.6 15.9 24.4 14 z" stroke-linecap="round"/>
</g>
<g transform="matrix(0.181 0 0 0.181 294.1381 277.0221)" id="951498">
<path style="stroke: none; stroke-width: 1; stroke-dasharray: none; stroke-linecap: butt; stroke-dashoffset: 0; stroke-linejoin: miter; stroke-miterlimit: 4; is-custom-font: none; font-file-url: none; fill: rgb(255,255,255); fill-rule: nonzero; opacity: 1;" vector-effect="non-scaling-stroke" transform=" translate(-256, -256)" d="M 256.001 147.109 c 123.192 0 217.923 51.893 217.923 108.89 S 379.12 364.89 256.001 364.89 c -123.194 0 -217.925 -51.894 -217.925 -108.891 S 132.878 147.109 256.001 147.109 M 256.001 135.034 c -127.004 0 -230 54.121 -230 120.965 s 102.996 120.967 230 120.967 c 127.003 0 229.998 -54.123 229.998 -120.967 S 383.004 135.034 256.001 135.034 z M 182.831 246.296 c -5.677 29.109 -25.73 26.09 -50.384 26.09 l 9.847 -50.744 C 169.607 221.643 188.15 218.696 182.831 246.296 L 182.831 246.296 z M 96.007 323.776 h 26.378 l 6.254 -32.199 c 29.54 0 47.867 2.157 64.83 -13.728 c 18.759 -17.251 23.646 -47.941 10.278 -63.322 c -6.971 -8.05 -18.185 -12.003 -33.421 -12.003 H 119.51 L 96.007 323.776 z M 229.478 170.253 h 26.235 l -6.254 32.199 c 22.64 0 43.628 -1.653 53.763 7.691 c 10.638 9.775 5.535 22.281 -5.966 81.291 h -26.594 c 11.069 -57.068 13.154 -61.812 9.128 -66.125 c -3.88 -4.168 -12.722 -3.306 -34.068 -3.306 l -13.513 69.431 h -26.234 L 229.478 170.253 L 229.478 170.253 z M 388.969 246.296 c -5.751 29.542 -26.379 26.09 -50.385 26.09 l 9.847 -50.744 C 375.887 221.643 394.287 218.696 388.969 246.296 z M 302.145 323.776 h 26.449 l 6.254 -32.199 c 31.049 0 48.227 1.796 64.83 -13.728 c 18.759 -17.251 23.646 -47.941 10.279 -63.322 c -6.974 -8.05 -18.186 -12.003 -33.423 -12.003 h -50.816 L 302.145 323.776 z" stroke-linecap="round"/>
</g>
<g transform="matrix(2.7009 0 0 2.7009 711.2519 281.3659)" id="708055">
<path style="stroke: none; stroke-width: 1; stroke-dasharray: none; stroke-linecap: butt; stroke-dashoffset: 0; stroke-linejoin: miter; stroke-miterlimit: 4; is-custom-font: none; font-file-url: none; fill: rgb(255,255,255); fill-rule: evenodd; opacity: 1;" vector-effect="non-scaling-stroke" transform=" translate(-16.5, -16.5)" d="M 4.99428189 10 C 3.34058566 10 2 11.3422643 2 12.9987856 L 2 20.0012144 C 2 21.6573979 3.3405687 23 4.99428189 23 L 28.0057181 23 C 29.6594143 23 31 21.6577357 31 20.0012144 L 31 12.9987856 C 31 11.3426021 29.6594313 10 28.0057181 10 L 4.99428189 10 L 4.99428189 10 Z M 5.00732994 11 C 3.89871223 11 3 11.9001762 3 12.992017 L 3 20.007983 C 3 21.1081436 3.89833832 22 5.00732994 22 L 27.9926701 22 C 29.1012878 22 30 21.0998238 30 20.007983 L 30 12.992017 C 30 11.8918564 29.1016617 11 27.9926701 11 L 5.00732994 11 L 5.00732994 11 Z M 19.5 18.25 L 21 13 L 22 13 L 20 20 L 19.5 20 L 19 20 L 17 13 L 18 13 L 19.5 18.25 L 19.5 18.25 Z M 5 17 L 5 17.9940809 C 5 19.1019194 5.8938998 20 7.0048815 20 L 7.9951185 20 C 9.10238398 20 10 19.1134452 10 17.9940809 L 10 13 L 9 13 L 9 18.009222 C 9 18.5490248 8.55275191 19 8.00104344 19 L 6.99895656 19 C 6.44266033 19 6 18.5522847 6 18 L 6 17 L 5 17 L 5 17 Z M 15 17 L 12 17 L 12 20 L 11 20 L 11 16.5 L 11 15 C 11 13.8877296 11.897616 13 13.0048815 13 L 13.9951185 13 C 15.1061002 13 16 13.8954305 16 15 L 16 17 L 16 20 L 15 20 L 15 17 L 15 17 L 15 17 Z M 12.9989566 14 C 12.4472481 14 12 14.4438648 12 15 L 12 16 L 15 16 L 15 15 C 15 14.4477153 14.5573397 14 14.0010434 14 L 12.9989566 14 L 12.9989566 14 Z M 27 17 L 24 17 L 24 20 L 23 20 L 23 16.5 L 23 15 C 23 13.8877296 23.897616 13 25.0048815 13 L 25.9951185 13 C 27.1061002 13 28 13.8954305 28 15 L 28 17 L 28 20 L 27 20 L 27 17 L 27 17 Z M 24.9989566 14 C 24.4472481 14 24 14.4438648 24 15 L 24 16 L 27 16 L 27 15 C 27 14.4477153 26.5573397 14 26.0010434 14 L 24.9989566 14 L 24.9989566 14 Z" stroke-linecap="round"/>
</g>
<g transform="matrix(2.5727 0 0 2.5727 275.8921 455.1924)" id="199568">
<g style="" vector-effect="non-scaling-stroke">
		<g transform="matrix(1 0 0 1 0 0)" id="Layer_1">
<path style="stroke: none; stroke-width: 1; stroke-dasharray: none; stroke-linecap: butt; stroke-dashoffset: 0; stroke-linejoin: miter; stroke-miterlimit: 4; is-custom-font: none; font-file-url: none; fill: rgb(255,255,255); fill-rule: nonzero; opacity: 1;" transform=" translate(-16, -16)" d="M 21.5 3 h -11 A 2.5 2.5 0 0 0 8 5.5 v 21 A 2.5 2.5 0 0 0 10.5 29 h 11 A 2.5 2.5 0 0 0 24 26.5 V 5.5 A 2.5 2.5 0 0 0 21.5 3 Z M 23 26.5 A 1.5 1.5 0 0 1 21.5 28 h -11 A 1.5 1.5 0 0 1 9 26.5 V 5.5 A 1.5 1.5 0 0 1 10.5 4 h 11 A 1.5 1.5 0 0 1 23 5.5 v 21 Z" stroke-linecap="round"/>
</g>
		<g transform="matrix(1 0 0 1 0 -0.5)" id="Layer_1">
<path style="stroke: none; stroke-width: 1; stroke-dasharray: none; stroke-linecap: butt; stroke-dashoffset: 0; stroke-linejoin: miter; stroke-miterlimit: 4; is-custom-font: none; font-file-url: none; fill: rgb(255,255,255); fill-rule: nonzero; opacity: 1;" transform=" translate(-16, -15.5)" d="M 10 24 H 22 V 7 H 10 V 24 Z M 11 8 H 21 V 23 H 11 V 8 Z" stroke-linecap="round"/>
</g>
		<g transform="matrix(1 0 0 1 0 10)" id="Layer_1">
<circle style="stroke: none; stroke-width: 1; stroke-dasharray: none; stroke-linecap: butt; stroke-dashoffset: 0; stroke-linejoin: miter; stroke-miterlimit: 4; is-custom-font: none; font-file-url: none; fill: rgb(255,255,255); fill-rule: nonzero; opacity: 1;" cx="0" cy="0" r="1"/>
</g>
		<g transform="matrix(1 0 0 1 0 -10.5)" id="Layer_1">
<rect style="stroke: none; stroke-width: 1; stroke-dasharray: none; stroke-linecap: butt; stroke-dashoffset: 0; stroke-linejoin: miter; stroke-miterlimit: 4; is-custom-font: none; font-file-url: none; fill: rgb(255,255,255); fill-rule: nonzero; opacity: 1;" x="-2" y="-0.5" rx="0" ry="0" width="4" height="1"/>
</g>
</g>
</g>
<g transform="matrix(0.1769 0 0 0.1769 773.2514 630.3035)" id="984324">
<g style="" vector-effect="non-scaling-stroke">
		<g transform="matrix(1 0 0 1 0 144)" id="_OUTLINE">
<path style="stroke: none; stroke-width: 1; stroke-dasharray: none; stroke-linecap: butt; stroke-dashoffset: 0; stroke-linejoin: miter; stroke-miterlimit: 4; is-custom-font: none; font-file-url: none; fill: rgb(255,255,255); fill-rule: nonzero; opacity: 1;" transform=" translate(-256, -400)" d="M 256 368 a 32 32 0 1 0 32 32 A 32.036 32.036 0 0 0 256 368 Z m 0 48 a 16 16 0 1 1 16 -16 A 16.01833 16.01833 0 0 1 256 416 Z" stroke-linecap="round"/>
</g>
		<g transform="matrix(1 0 0 1 0 0)" id="_OUTLINE">
<path style="stroke: none; stroke-width: 1; stroke-dasharray: none; stroke-linecap: butt; stroke-dashoffset: 0; stroke-linejoin: miter; stroke-miterlimit: 4; is-custom-font: none; font-file-url: none; fill: rgb(255,255,255); fill-rule: nonzero; opacity: 1;" transform=" translate(-256, -256)" d="M 447.09375 474.6709 a 55.68069 55.68069 0 0 0 10.47705 -47.73975 L 432.13623 320.9541 a 64.195 64.195 0 0 0 -49.68164 -47.82178 L 304 257.44141 V 229.41626 l 4.79785 -1.91919 a 55.69464 55.69464 0 0 0 34.84473 -45.61182 l 7.79785 -2.59912 a 29.29538 29.29538 0 0 0 -2.15967 -56.2124 L 344 121.75366 V 75.53528 a 56.27962 56.27962 0 0 0 32 -50.566 V 16 H 221.311 A 53.37117 53.37117 0 0 0 168 69.311 v 52.44262 l -5.28125 1.32007 a 29.29538 29.29538 0 0 0 -2.15869 56.2124 l 7.79742 2.59912 a 55.69447 55.69447 0 0 0 34.84467 45.61182 L 208 229.41626 v 28.02515 l -78.45459 15.69091 a 64.19509 64.19509 0 0 0 -49.68164 47.82129 L 68.57251 368 H 64 a 24.0275 24.0275 0 0 0 -24 24 v 8 H 32 v 16 h 8.76007 l 5.83856 58.38818 A 24.17307 24.17307 0 0 0 47.86731 480 H 16 v 16 H 496 V 480 H 442.29822 A 56.81781 56.81781 0 0 0 447.09375 474.6709 Z M 168 164.90063 l -2.37988 -0.79321 a 13.29541 13.29541 0 0 1 0.979 -25.51123 L 168 138.246 Z m 160 -64 l -37.65283 -12.551 L 328 80.50537 Z m 17.40039 37.69556 a 13.29541 13.29541 0 0 1 0.98 25.51123 L 344 164.90088 V 138.24609 Z M 184 88 V 69.311 A 37.35346 37.35346 0 0 1 221.311 32 H 359.37158 a 40.202 40.202 0 0 1 -30.69751 32 H 328 v 0.16138 L 184 94.16162 Z m 0 87.50244 V 110.50513 l 75.21118 -15.66895 L 328 117.76587 v 57.73657 a 39.80864 39.80864 0 0 1 -25.14453 37.13916 L 282.74023 220.688 a 71.698 71.698 0 0 1 -53.48046 0 l -20.11524 -8.04639 A 39.80864 39.80864 0 0 1 184 175.50244 Z m 104 60.29541 v 23.67261 l -7.30469 4.38257 a 47.91269 47.91269 0 0 1 -49.39111 0 L 224 259.4707 V 235.79785 a 87.4128 87.4128 0 0 0 64 0 Z M 113.48047 472.79639 A 7.97518 7.97518 0 0 1 105.52 480 H 70.48 a 7.97518 7.97518 0 0 1 -7.96045 -7.20361 L 56.8399 416 h 62.3202 Z M 120 400 H 56 v -8 a 8.00917 8.00917 0 0 1 8 -8 h 48 a 8.00917 8.00917 0 0 1 8 8 Z m 264 80 H 128.13269 a 24.17307 24.17307 0 0 0 1.26868 -5.61182 L 135.24005 416 H 144 V 400 h -8.01886 L 136 392 a 23.94322 23.94322 0 0 0 -8 -17.86914 V 328 a 8.00917 8.00917 0 0 1 8 -8 H 376 a 8.00917 8.00917 0 0 1 8 8 Z m -8 -176 H 136 a 24.0275 24.0275 0 0 0 -24 24 v 40 H 85.02734 l 10.395 -43.3125 a 48.14523 48.14523 0 0 1 37.26075 -35.86572 l 81.85345 -16.37061 l 8.53571 5.12158 a 63.881 63.881 0 0 0 65.855 0 l 8.53613 -5.12158 l 81.85351 16.37061 A 48.1451 48.1451 0 0 1 416.57764 324.688 l 21.11682 87.98694 L 400 434.2146 V 328 A 24.0275 24.0275 0 0 0 376 304 Z m 27.11719 176 H 400 V 452.64258 l 41.58374 -23.76221 l 0.42847 1.78516 A 39.99922 39.99922 0 0 1 403.11719 480 Z" stroke-linecap="round"/>
</g>
		<g transform="matrix(1 0 0 1 -32 -128)" id="_OUTLINE">
<rect style="stroke: none; stroke-width: 1; stroke-dasharray: none; stroke-linecap: butt; stroke-dashoffset: 0; stroke-linejoin: miter; stroke-miterlimit: 4; is-custom-font: none; font-file-url: none; fill: rgb(255,255,255); fill-rule: nonzero; opacity: 1;" x="-8" y="-8" rx="0" ry="0" width="16" height="16"/>
</g>
		<g transform="matrix(1 0 0 1 32 -128)" id="_OUTLINE">
<rect style="stroke: none; stroke-width: 1; stroke-dasharray: none; stroke-linecap: butt; stroke-dashoffset: 0; stroke-linejoin: miter; stroke-miterlimit: 4; is-custom-font: none; font-file-url: none; fill: rgb(255,255,255); fill-rule: nonzero; opacity: 1;" x="-8" y="-8" rx="0" ry="0" width="16" height="16"/>
</g>
		<g transform="matrix(1 0 0 1 -3.564 -102.3999)" id="_OUTLINE">
<path style="stroke: none; stroke-width: 1; stroke-dasharray: none; stroke-linecap: butt; stroke-dashoffset: 0; stroke-linejoin: miter; stroke-miterlimit: 4; is-custom-font: none; font-file-url: none; fill: rgb(255,255,255); fill-rule: nonzero; opacity: 1;" transform=" translate(-252.4359, -153.6001)" d="M 256.94434 184 H 264 V 168 h -7.05566 a 6.47218 6.47218 0 0 1 -5.17774 -10.35547 l 18.6333 -24.84473 l -12.7998 -9.5996 l -18.6333 24.84423 A 22.472 22.472 0 0 0 256.94434 184 Z" stroke-linecap="round"/>
</g>
		<g transform="matrix(1 0 0 1 0 -53.7014)" id="_OUTLINE">
<path style="stroke: none; stroke-width: 1; stroke-dasharray: none; stroke-linecap: butt; stroke-dashoffset: 0; stroke-linejoin: miter; stroke-miterlimit: 4; is-custom-font: none; font-file-url: none; fill: rgb(255,255,255); fill-rule: nonzero; opacity: 1;" transform=" translate(-256, -202.2986)" d="M 243.57764 192.84473 l -7.15528 14.31054 a 43.98553 43.98553 0 0 0 39.15528 0 l -7.15528 -14.31054 A 27.91375 27.91375 0 0 1 243.57764 192.84473 Z" stroke-linecap="round"/>
</g>
		<g transform="matrix(1 0 0 1 178.3999 -151.9902)" id="_OUTLINE">
<path style="stroke: none; stroke-width: 1; stroke-dasharray: none; stroke-linecap: butt; stroke-dashoffset: 0; stroke-linejoin: miter; stroke-miterlimit: 4; is-custom-font: none; font-file-url: none; fill: rgb(255,255,255); fill-rule: nonzero; opacity: 1;" transform=" translate(-434.3999, -104.0098)" d="M 408 32 a 72 72 0 1 1 -28.79688 138.0127 l -6.40624 14.66113 A 88.00865 88.00865 0 1 0 408 16 a 88.65342 88.65342 0 0 0 -17.59131 1.75977 l 3.18262 15.68066 A 72.56292 72.56292 0 0 1 408 32 Z" stroke-linecap="round"/>
</g>
		<g transform="matrix(1 0 0 1 141.1715 -165.1715)" id="_OUTLINE">
<polygon style="stroke: none; stroke-width: 1; stroke-dasharray: none; stroke-linecap: butt; stroke-dashoffset: 0; stroke-linejoin: miter; stroke-miterlimit: 4; is-custom-font: none; font-file-url: none; fill: rgb(255,255,255); fill-rule: nonzero; opacity: 1;" points="18.8285,16.4845 18.8285,-42.8285 2.8285,-42.8285 2.8285,9.8585 -18.8285,31.5145 -7.5145,42.8285 18.8285,16.4845 "/>
</g>
</g>
</g>
<g transform="matrix(2.864 0 0 2.864 748.3155 378.1625)" id="277564">
<path style="stroke: none; stroke-width: 1; stroke-dasharray: none; stroke-linecap: butt; stroke-dashoffset: 0; stroke-linejoin: miter; stroke-miterlimit: 4; is-custom-font: none; font-file-url: none; fill: rgb(255,255,255); fill-rule: nonzero; opacity: 1;" vector-effect="non-scaling-stroke" transform=" translate(-12, -12.1745)" d="M 16.405 5.676 c -0.115 0 -0.193 0.014 -0.274 0.033 v 0.013 h 0.014 c 0.054 0.104 0.146 0.18 0.214 0.273 c 0.054 0.107 0.1 0.214 0.154 0.32 l 0.014 -0.015 c 0.094 -0.066 0.14 -0.172 0.14 -0.333 c -0.04 -0.047 -0.046 -0.094 -0.08 -0.14 c -0.04 -0.067 -0.126 -0.1 -0.18 -0.153 z M 5.77 18.87 h -0.927 c -0.03 -1.562 -0.123 -3.03 -0.27 -4.41 h -0.008 l -1.41 4.41 H 2.45 l -1.4 -4.41 h -0.01 c -0.103 1.323 -0.168 2.793 -0.195 4.41 H 0 c 0.055 -1.966 0.192 -3.81 0.41 -5.53 h 1.15 l 1.335 4.064 h 0.008 L 4.25 13.34 h 1.095 c 0.242 2.015 0.384 3.86 0.428 5.53 z m 4.017 -4.08 c -0.378 2.045 -0.876 3.533 -1.492 4.46 c -0.482 0.716 -1.01 1.073 -1.583 1.073 c -0.153 0 -0.34 -0.046 -0.566 -0.138 v -0.494 c 0.11 0.017 0.24 0.026 0.386 0.026 c 0.268 0 0.483 -0.075 0.647 -0.222 c 0.197 -0.18 0.295 -0.382 0.295 -0.605 c 0 -0.155 -0.077 -0.47 -0.23 -0.944 L 6.23 14.79 h 0.91 l 0.727 2.36 c 0.164 0.536 0.233 0.91 0.205 1.123 c 0.4 -1.064 0.678 -2.227 0.835 -3.483 h 0.88 z M 22.112 18.87 h -2.63 v -5.53 h 0.885 v 4.85 h 1.745 z M 18.792 19.005 l -1.016 -0.5 c 0.09 -0.076 0.177 -0.158 0.255 -0.25 c 0.433 -0.506 0.648 -1.258 0.648 -2.253 c 0 -1.83 -0.718 -2.746 -2.155 -2.746 c -0.704 0 -1.254 0.232 -1.65 0.697 c -0.43 0.508 -0.646 1.256 -0.646 2.245 c 0 0.972 0.19 1.686 0.574 2.14 c 0.35 0.41 0.877 0.615 1.583 0.615 c 0.264 0 0.506 -0.033 0.725 -0.098 l 1.325 0.772 l 0.36 -0.622 z M 15.5 17.763 c -0.225 -0.36 -0.337 -0.94 -0.337 -1.736 c 0 -1.393 0.424 -2.09 1.27 -2.09 c 0.443 0 0.77 0.167 0.977 0.5 c 0.224 0.362 0.336 0.936 0.336 1.723 c 0 1.404 -0.424 2.108 -1.27 2.108 c -0.445 0 -0.77 -0.167 -0.978 -0.5 z M 13.842 17.338 c 0 0.47 -0.172 0.856 -0.516 1.156 s -0.803 0.45 -1.384 0.45 c -0.543 0 -1.064 -0.172 -1.573 -0.515 l 0.237 -0.476 c 0.438 0.22 0.833 0.328 1.19 0.328 c 0.332 0 0.593 -0.073 0.783 -0.22 c 0.188 -0.147 0.3 -0.354 0.3 -0.615 c 0 -0.33 -0.23 -0.61 -0.648 -0.845 c -0.388 -0.213 -1.163 -0.657 -1.163 -0.657 c -0.422 -0.307 -0.632 -0.636 -0.632 -1.177 c 0 -0.45 0.157 -0.81 0.47 -1.085 c 0.315 -0.278 0.72 -0.415 1.22 -0.415 c 0.512 0 0.98 0.136 1.4 0.41 l -0.213 0.476 c -0.36 -0.152 -0.715 -0.23 -1.064 -0.23 c -0.283 0 -0.502 0.068 -0.654 0.206 c -0.153 0.136 -0.248 0.31 -0.248 0.524 c 0 0.328 0.234 0.61 0.666 0.85 c 0.393 0.215 1.187 0.67 1.187 0.67 c 0.433 0.305 0.648 0.63 0.648 1.168 z M 23.224 11.486 c -0.535 -0.014 -0.95 0.04 -1.297 0.188 c -0.1 0.04 -0.26 0.04 -0.274 0.167 c 0.055 0.053 0.063 0.14 0.11 0.214 c 0.08 0.134 0.218 0.313 0.346 0.407 c 0.14 0.11 0.28 0.216 0.427 0.31 c 0.26 0.16 0.555 0.255 0.81 0.416 c 0.145 0.094 0.293 0.213 0.44 0.313 c 0.073 0.05 0.12 0.14 0.214 0.172 v -0.02 c -0.046 -0.06 -0.06 -0.147 -0.105 -0.214 c -0.067 -0.067 -0.134 -0.127 -0.2 -0.193 c -0.194 -0.26 -0.435 -0.487 -0.695 -0.675 c -0.214 -0.146 -0.682 -0.35 -0.77 -0.595 l -0.013 -0.014 c 0.146 -0.013 0.32 -0.066 0.46 -0.106 c 0.227 -0.06 0.435 -0.047 0.67 -0.106 c 0.106 -0.027 0.213 -0.06 0.32 -0.094 v -0.06 c -0.12 -0.12 -0.21 -0.283 -0.334 -0.395 c -0.34 -0.295 -0.717 -0.582 -1.104 -0.823 c -0.21 -0.134 -0.476 -0.22 -0.697 -0.334 c -0.08 -0.04 -0.214 -0.06 -0.26 -0.127 c -0.12 -0.146 -0.19 -0.34 -0.275 -0.514 c -0.192 -0.368 -0.38 -0.775 -0.547 -1.163 c -0.12 -0.262 -0.193 -0.523 -0.34 -0.763 c -0.69 -1.137 -1.437 -1.826 -2.586 -2.5 c -0.247 -0.14 -0.543 -0.2 -0.856 -0.274 c -0.167 -0.008 -0.334 -0.02 -0.5 -0.027 c -0.11 -0.047 -0.216 -0.174 -0.31 -0.235 c -0.38 -0.24 -1.364 -0.76 -1.644 -0.072 c -0.18 0.434 0.267 0.862 0.422 1.082 c 0.115 0.153 0.26 0.328 0.34 0.5 c 0.047 0.116 0.06 0.235 0.107 0.356 c 0.106 0.294 0.207 0.622 0.347 0.897 c 0.073 0.14 0.153 0.287 0.247 0.413 c 0.054 0.073 0.146 0.107 0.167 0.227 c -0.094 0.136 -0.1 0.334 -0.154 0.5 c -0.24 0.757 -0.146 1.693 0.194 2.25 c 0.107 0.166 0.362 0.534 0.703 0.393 c 0.3 -0.12 0.234 -0.5 0.32 -0.835 c 0.02 -0.08 0.007 -0.133 0.048 -0.187 v 0.015 c 0.094 0.188 0.188 0.367 0.274 0.555 c 0.206 0.328 0.566 0.668 0.867 0.895 c 0.16 0.12 0.287 0.328 0.487 0.402 v -0.02 h -0.015 c -0.043 -0.058 -0.1 -0.086 -0.154 -0.133 c -0.12 -0.12 -0.255 -0.267 -0.35 -0.4 c -0.28 -0.377 -0.527 -0.79 -0.747 -1.218 c -0.11 -0.21 -0.202 -0.436 -0.29 -0.643 c -0.04 -0.08 -0.04 -0.2 -0.107 -0.24 c -0.1 0.146 -0.247 0.273 -0.32 0.453 c -0.127 0.288 -0.14 0.642 -0.188 1.01 c -0.027 0.007 -0.014 0 -0.027 0.014 c -0.214 -0.052 -0.287 -0.274 -0.367 -0.46 c -0.2 -0.475 -0.233 -1.238 -0.06 -1.785 c 0.047 -0.14 0.247 -0.582 0.167 -0.716 c -0.042 -0.127 -0.174 -0.2 -0.247 -0.303 c -0.087 -0.124 -0.18 -0.285 -0.24 -0.427 c -0.16 -0.374 -0.24 -0.788 -0.414 -1.162 c -0.08 -0.173 -0.22 -0.354 -0.334 -0.513 c -0.127 -0.18 -0.267 -0.307 -0.368 -0.52 c -0.033 -0.073 -0.08 -0.194 -0.027 -0.274 c 0.014 -0.054 0.042 -0.075 0.094 -0.09 c 0.088 -0.072 0.335 0.022 0.422 0.062 c 0.247 0.1 0.455 0.194 0.662 0.334 c 0.094 0.066 0.195 0.193 0.315 0.226 h 0.14 c 0.214 0.047 0.455 0.014 0.655 0.073 c 0.355 0.114 0.675 0.28 0.962 0.46 c 0.876 0.556 1.596 1.345 2.085 2.286 c 0.08 0.154 0.115 0.295 0.188 0.455 c 0.14 0.33 0.313 0.663 0.455 0.982 c 0.14 0.315 0.275 0.636 0.476 0.897 c 0.1 0.14 0.502 0.213 0.682 0.286 c 0.133 0.06 0.34 0.115 0.46 0.188 c 0.23 0.14 0.454 0.3 0.67 0.454 c 0.11 0.076 0.443 0.243 0.463 0.378 z" stroke-linecap="round"/>
</g>
<g transform="matrix(0.1318 0 0 0.1318 722.3472 462.6096)" id="395582">
<g style="" vector-effect="non-scaling-stroke">
		<g transform="matrix(1 0 0 1 6.011 -73.1123)" id="Layer_1">
<path style="stroke: none; stroke-width: 1; stroke-dasharray: none; stroke-linecap: butt; stroke-dashoffset: 0; stroke-linejoin: miter; stroke-miterlimit: 4; is-custom-font: none; font-file-url: none; fill: rgb(255,255,255); fill-rule: nonzero; opacity: 1;" transform=" translate(-262.011, -182.8877)" d="M 297.036 205.578 l -36.334 33.809 l -33.716 -68.005 l 17.446 -39.108 c 4.416 -7.84 11.621 -7.855 16.037 0 L 297.036 205.578 z" stroke-linecap="round"/>
</g>
		<g transform="matrix(1 0 0 1 -63.187 12.539)" id="Layer_1">
<polygon style="stroke: none; stroke-width: 1; stroke-dasharray: none; stroke-linecap: butt; stroke-dashoffset: 0; stroke-linejoin: miter; stroke-miterlimit: 4; is-custom-font: none; font-file-url: none; fill: rgb(239,224,211); fill-rule: nonzero; opacity: 1;" points="67.889,-29.153 -67.889,97.158 34.173,-97.158 "/>
</g>
		<g transform="matrix(1 0 0 1 -0.025 37.8934)" id="Layer_1">
<path style="stroke: none; stroke-width: 1; stroke-dasharray: none; stroke-linecap: butt; stroke-dashoffset: 0; stroke-linejoin: miter; stroke-miterlimit: 4; is-custom-font: none; font-file-url: none; fill: rgb(255,255,255); fill-rule: nonzero; opacity: 1;" transform=" translate(-255.975, -293.8935)" d="M 336.776 153.901 c 6.491 -6.239 13.202 -4.111 14.912 4.729 l 35.342 205.375 L 269.873 434.22 c -4.1 2.264 -14.957 3.246 -14.957 3.246 s -9.91 -1.185 -13.687 -3.281 L 124.92 365.69 L 336.776 153.901 z" stroke-linecap="round"/>
</g>
		<g transform="matrix(1 0 0 1 -80.045 -35.9187)" id="Layer_1">
<path style="stroke: none; stroke-width: 1; stroke-dasharray: none; stroke-linecap: butt; stroke-dashoffset: 0; stroke-linejoin: miter; stroke-miterlimit: 4; is-custom-font: none; font-file-url: none; fill: rgb(255,255,255); fill-rule: nonzero; opacity: 1;" transform=" translate(-175.955, -220.0814)" d="M 226.986 171.381 L 124.924 365.697 l 45.46 -283.998 c 1.674 -8.847 6.71 -9.699 11.203 -1.89 L 226.986 171.381 z" stroke-linecap="round"/>
</g>
</g>
</g>
<g transform="matrix(0.202 0 0 0.202 485.2158 245.4504)" id="692868">
<path style="stroke: none; stroke-width: 1; stroke-dasharray: none; stroke-linecap: butt; stroke-dashoffset: 0; stroke-linejoin: miter; stroke-miterlimit: 4; is-custom-font: none; font-file-url: none; fill: rgb(255,255,255); fill-rule: nonzero; opacity: 1;" vector-effect="non-scaling-stroke" transform=" translate(-319.9179, -249.55)" d="M 210.3 220.2 c -5.6 -24.8 -26.9 -41.2 -51 -41.2 h -37 c -7.1 0 -12.5 4.5 -14.3 10.9 L 73.1 320 l 24.7 -0.1 c 6.8 0 12.3 -4.5 14.2 -10.7 l 25.8 -95.7 h 19.8 c 8.4 0 16.2 5.6 18.3 14.8 c 2.5 10.9 -5.9 22.6 -18.3 22.6 h -10.3 c -7 0 -12.5 4.6 -14.3 10.8 l -6.4 23.8 h 32 c 37.2 0 58.3 -36.2 51.7 -65.3 z m -156.5 28 h 18.6 c 6.9 0 12.4 -4.4 14.3 -10.9 l 6.2 -23.6 h -40 C 30 213.7 9 227.8 1.7 254.8 C -7 288.6 18.5 320 52 320 h 12.4 l 7.1 -26.1 c 1.2 -4.4 -2.2 -8.3 -6.4 -8.3 H 53.8 c -24.7 0 -24.9 -37.4 0 -37.4 z m 247.5 -34.8 h -77.9 l -3.5 13.4 c -2.4 9.6 4.5 18.5 14.2 18.5 h 57.5 c 4 0 2.4 4.3 2.1 5.3 l -8.6 31.8 c -0.4 1.4 -0.9 5.3 -5.5 5.3 h -34.9 c -5.3 0 -5.3 -7.9 0 -7.9 h 21.6 c 6.8 0 12.3 -4.6 14.2 -10.8 l 3.5 -13.2 h -48.4 c -39.2 0 -43.6 63.8 -0.7 63.8 l 57.5 0.2 c 11.2 0 20.6 -7.2 23.4 -17.8 l 14 -51.8 c 4.8 -19.2 -9.7 -36.8 -28.5 -36.8 z M 633.1 179 h -18.9 c -4.9 0 -9.2 3.2 -10.4 7.9 L 568.2 320 c 20.7 0 39.8 -13.8 44.9 -34.5 l 26.5 -98.2 c 1.2 -4.3 -2 -8.3 -6.5 -8.3 z m -236.3 34.7 v 0.1 h -48.3 l -26.2 98 c -1.2 4.4 2.2 8.3 6.4 8.3 h 18.9 c 4.8 0 9.2 -3 10.4 -7.8 l 17.2 -64 H 395 c 12.5 0 21.4 11.8 18.1 23.4 l -10.6 40 c -1.2 4.3 1.9 8.3 6.4 8.3 H 428 c 4.6 0 9.1 -2.9 10.3 -7.8 l 8.8 -33.1 c 9 -33.1 -15.9 -65.4 -50.3 -65.4 z m 98.3 74.6 c -3.6 0 -6 -3.4 -5.1 -6.7 l 8 -30 c 0.9 -3.9 3.7 -6 7.8 -6 h 32.9 c 2.6 0 4.6 2.4 3.9 5.1 l -0.7 2.6 c -0.6 2 -1.9 3 -3.9 3 h -21.6 c -7 0 -12.6 4.6 -14.2 10.8 l -3.5 13 h 53.4 c 10.5 0 20.3 -6.6 23.2 -17.6 l 3.2 -12 c 4.9 -19.1 -9.3 -36.8 -28.3 -36.8 h -47.3 c -17.9 0 -33.8 12 -38.6 29.6 l -10.8 40 c -5 17.7 8.3 36.7 28.3 36.7 h 66.7 c 6.8 0 12.3 -4.5 14.2 -10.7 l 5.7 -21 z" stroke-linecap="round"/>
</g>
</svg>